<svg width="512" height="512" viewBox="0 0 512 512" fill="none" xmlns="http://www.w3.org/2000/svg">
<rect width="512" height="512" rx="256" fill="#EBE9E6"/>
<path fill-rule="evenodd" clip-rule="evenodd" d="M301.392 158.916V358.293C282.835 355.151 266.972 347.037 253.804 333.95C236.474 316.728 227.809 291.613 227.809 258.604C227.809 227.031 236.474 201.916 253.804 183.259C266.972 170.172 282.835 162.058 301.392 158.916Z" fill="#398AFF"/>
<path fill-rule="evenodd" clip-rule="evenodd" d="M394.827 77.4379C379.425 84.7957 361.868 93.0442 342.154 102.185C304.171 119.45 265.671 137.06 226.654 155.014C187.301 172.62 150.706 189.018 116.87 204.21C82.6826 219.404 58.3046 230.296 43.7598 236.876L36.7058 240.067V275.223L44.3981 278.181C57.585 283.253 81.8786 293.513 117.479 309.066L117.504 309.078L117.53 309.089C152.716 324.267 190.497 340.828 230.875 358.774C270.884 376.709 309.856 394.471 347.791 412.059C365.599 420.391 381.259 427.824 394.776 434.36L412 442.688V395.922L404.748 392.798C401.321 391.321 397.726 389.764 393.963 388.125C374.191 379.338 352.7 369.691 329.489 359.184C329.235 343.514 329.107 326.943 329.107 309.469V309.369L329.106 309.269C328.761 288.583 328.589 271.21 328.589 257.136C328.589 240.984 328.761 223.267 329.105 203.981L329.107 203.874V203.767C329.107 186.677 329.238 169.587 329.499 152.497C352.681 142.032 374.132 132.574 393.857 124.12L393.931 124.089L394.004 124.056C397.773 122.381 401.365 120.802 404.78 119.319L412 116.184V69.2346L394.827 77.4379ZM104.334 253.604C119.212 247.03 138.568 238.389 162.396 227.684C182.808 218.689 205.629 208.488 230.856 197.084L230.884 197.072L230.913 197.059C250.152 188.24 269.288 179.526 288.32 170.915C288.458 181.789 288.527 193.43 288.527 205.839V306.649C288.184 315.641 288.011 324.795 288.008 334.11C287.923 336.351 287.848 338.552 287.783 340.713C269.684 332.518 251.383 324.324 232.882 316.131C208.341 305.07 186.208 295.214 166.482 286.562L166.391 286.522L166.299 286.484C140.724 275.77 120.308 267.292 105.064 261.056L105.021 261.038L104.977 261.021C101.703 259.711 98.5582 258.455 95.5432 257.252C98.3029 256.12 101.161 254.935 104.118 253.697L104.227 253.652L104.334 253.604Z" fill="#323232"/>
</svg>
