<svg width="40" height="40" viewBox="0 0 40 40" fill="none" xmlns="http://www.w3.org/2000/svg">
<rect width="40" height="40" rx="20" fill="#EBE9E6"/>
<path fill-rule="evenodd" clip-rule="evenodd" d="M21.0001 13.4172V27.8681C19.655 27.6403 18.5053 27.0522 17.5508 26.1036C16.2948 24.8554 15.6667 23.0351 15.6667 20.6426C15.6667 18.3542 16.2948 16.5339 17.5508 15.1817C18.5053 14.2331 19.655 13.645 21.0001 13.4172Z" fill="#398AFF"/>
<path d="M20.552 20.552C20.552 19.6347 20.552 18.5787 20.552 17.384C20.552 16.168 20.5413 15.0693 20.52 14.088C19.0053 14.7707 17.48 15.464 15.944 16.168C14.3867 16.872 12.9787 17.5013 11.72 18.056C10.248 18.7173 9.05333 19.2507 8.136 19.656C7.21867 20.04 6.46133 20.3387 5.864 20.552C6.46133 20.7867 7.24 21.096 8.2 21.48C9.13867 21.864 10.3973 22.3867 11.976 23.048C13.192 23.5813 14.5573 24.1893 16.072 24.872C17.5653 25.5333 19.0373 26.1947 20.488 26.856C20.488 26.3867 20.4987 25.8747 20.52 25.32C20.52 24.744 20.5307 24.1787 20.552 23.624C20.552 23.048 20.552 22.4933 20.552 21.96C20.552 21.4267 20.552 20.9573 20.552 20.552ZM29 9.00001L29 10.44C28.36 10.6533 27.368 11.0587 26.024 11.656C24.68 12.232 23.208 12.8827 21.608 13.608C21.5867 14.824 21.576 16.04 21.576 17.256C21.5547 18.4507 21.544 19.5493 21.544 20.552C21.544 21.4267 21.5547 22.504 21.576 23.784C21.576 25.0427 21.5867 26.2267 21.608 27.336C23.208 28.0613 24.68 28.7227 26.024 29.32C27.3467 29.896 28.3387 30.312 29 30.568L29 31.976C27.848 31.3787 26.1093 30.536 23.784 29.448C21.4373 28.36 19.0267 27.2613 16.552 26.152C14.056 25.0427 11.72 24.0187 9.544 23.08C7.34667 22.12 5.832 21.48 5 21.16L5 19.976C5.896 19.5707 7.4 18.8987 9.512 17.96C11.6027 17.0213 13.864 16.008 16.296 14.92C18.7067 13.8107 21.0853 12.7227 23.432 11.656C25.7787 10.568 27.6347 9.68268 29 9.00001Z" fill="#323232"/>
</svg>
